<svg width="388" height="120" viewBox="0 0 388 120" fill="none" xmlns="http://www.w3.org/2000/svg">
<path d="M65.9382 38.3651H104V16H61.1161V20.7668H99.1794V33.5975H61.1161V56.1211H80.1466V69.0037H44.3825V104H65.9922L65.9382 86.7079H61.1161V99.2324H49.2068V73.772H84.971V51.3536H65.9382V38.3651Z" fill="black"/>
<path d="M10.8228 20.7668H44.3825V56.9138H49.2068V16H6V38.3651H30.228V33.5975H10.8228V20.7668Z" fill="black"/>
<path d="M137.247 58.4251H127.033V52.1737H138.077V48.6137H123V71.3882H127.033V61.9851H137.247V58.4251Z" fill="black"/>
<path d="M158.32 71.3882H163.169L157.054 61.3913L158.022 61.2139C159.591 60.925 160.744 60.2689 161.545 59.2088C162.363 58.1245 162.761 56.8357 162.761 55.266C162.761 53.9743 162.536 52.8914 162.093 52.0476C161.652 51.2119 161.053 50.5389 160.31 50.0491C159.545 49.5447 158.634 49.1767 157.604 48.9561C156.536 48.7302 155.39 48.6144 154.202 48.6144H145.401V71.3882H149.433V61.7476H153.196L158.32 71.3882ZM149.432 51.7654H153.646C154.162 51.7654 154.688 51.8006 155.227 51.8746C155.804 51.9509 156.33 52.1048 156.791 52.3306C157.283 52.574 157.696 52.9288 158.017 53.3848C158.351 53.8658 158.519 54.486 158.519 55.2323C158.519 56.0417 158.324 56.6978 157.941 57.1795C157.577 57.637 157.112 57.9771 156.561 58.1897C156.061 58.3855 155.496 58.505 154.884 58.5431C154.326 58.5783 153.799 58.5959 153.301 58.5959H149.432V51.7654Z" fill="black"/>
<path d="M184.677 66.2776L186.788 71.3882H191.378L181.309 48.6144H177.74L167.738 71.3882H172.186L174.228 66.2776H184.677ZM179.364 53.1202L183.387 63.1259H175.39L179.364 53.1202Z" fill="black"/>
<path d="M219.865 52.8885L219.935 53.5615V71.3882H223.967V48.6137H216.999L211.321 64.3531H210.354L210.123 63.9037L204.642 48.6137H197.64V71.3882H201.673V52.8885H202.85L203.073 53.3511L209.116 71.3882H212.253L218.693 52.8885H219.865Z" fill="black"/>
<path d="M247.265 61.5768V58.0167H236.637V52.1737H247.888V48.6137H232.603V71.3882H248.511V67.8281H236.637V61.5768H247.265Z" fill="black"/>
<path d="M278.906 48.6137H260.886V51.9692H267.88V71.3882H271.913V51.9692H278.906V48.6137Z" fill="black"/>
<path d="M307.913 64.9909C308.535 63.5151 308.85 61.8356 308.85 60.0013C308.85 58.167 308.535 56.4874 307.915 55.0131C307.295 53.5388 306.425 52.2705 305.324 51.2405C304.219 50.2075 302.888 49.4018 301.369 48.8446C299.836 48.2845 298.132 48.0008 296.307 48.0008C294.483 48.0008 292.782 48.2845 291.249 48.8446C289.732 49.4003 288.401 50.206 287.294 51.2405C286.193 52.272 285.321 53.5403 284.703 55.0131C284.083 56.4918 283.768 58.1699 283.768 60.0013C283.768 61.8326 284.083 63.5115 284.703 64.9909C285.322 66.463 286.193 67.7306 287.294 68.7629C288.399 69.7958 289.73 70.603 291.249 71.1587C294.315 72.2782 298.302 72.2782 301.369 71.1587C302.891 70.6015 304.221 69.7944 305.324 68.7629C306.426 67.7321 307.296 66.4638 307.913 64.9909ZM304.03 63.3531C303.64 64.381 303.071 65.282 302.342 66.0342C301.615 66.7885 300.729 67.386 299.706 67.8098C298.694 68.2291 297.551 68.4417 296.309 68.4417C295.07 68.4417 293.926 68.2291 292.912 67.8098C291.891 67.3882 291.004 66.79 290.276 66.0334C289.549 65.2827 288.98 64.3817 288.591 63.3539C288.206 62.3407 288.011 61.2131 288.011 60.0013C288.011 58.8144 288.206 57.6927 288.591 56.6685C288.978 55.6319 289.547 54.7235 290.276 53.9669C291.005 53.2111 291.892 52.6136 292.912 52.1928C294.942 51.3519 297.684 51.3541 299.706 52.1928C300.729 52.6143 301.615 53.2125 302.345 53.9684C303.074 54.7243 303.643 55.6319 304.03 56.6692C304.414 57.6927 304.61 58.8151 304.61 60.002C304.61 61.2124 304.414 62.34 304.03 63.3531Z" fill="black"/>
<path d="M338.794 64.9909C339.416 63.5151 339.731 61.8356 339.731 60.0013C339.731 58.167 339.416 56.4874 338.796 55.0131C338.176 53.5388 337.306 52.2705 336.206 51.2405C335.1 50.2075 333.77 49.4018 332.251 48.8446C330.717 48.2845 329.014 48.0008 327.189 48.0008C325.365 48.0008 323.664 48.2845 322.131 48.8446C320.614 49.4003 319.283 50.206 318.175 51.2405C317.078 52.2698 316.204 53.5388 315.585 55.0131C314.965 56.4904 314.65 58.1685 314.65 60.0013C314.65 61.8341 314.965 63.5129 315.585 64.9909C316.205 66.4638 317.078 67.7336 318.175 68.7629C319.281 69.7958 320.611 70.603 322.131 71.1587C325.197 72.2782 329.184 72.2782 332.251 71.1587C333.773 70.6015 335.103 69.7944 336.206 68.7629C337.306 67.7321 338.176 66.4638 338.794 64.9909ZM334.91 63.3531C334.521 64.381 333.951 65.282 333.222 66.0342C332.496 66.7885 331.609 67.386 330.586 67.8098C329.574 68.2291 328.431 68.4417 327.189 68.4417C325.95 68.4417 324.807 68.2291 323.792 67.8098C322.772 67.3882 321.885 66.79 321.156 66.0334C320.43 65.2827 319.86 64.3817 319.471 63.3539C319.086 62.3407 318.891 61.2131 318.891 60.0013C318.891 58.8144 319.086 57.6927 319.471 56.6685C319.858 55.6319 320.427 54.7235 321.156 53.9669C321.885 53.2111 322.772 52.6136 323.792 52.1928C325.822 51.3519 328.562 51.3541 330.586 52.1928C331.609 52.6143 332.496 53.2125 333.225 53.9684C333.954 54.7243 334.523 55.6319 334.91 56.6692C335.295 57.6927 335.49 58.8151 335.49 60.002C335.49 61.2124 335.295 62.34 334.91 63.3531Z" fill="black"/>
<path d="M347.051 48.6137V71.3882H361.089V67.8281H351.085V48.6137H347.051Z" fill="black"/>
<path d="M376.664 71.5494C377.716 71.2577 378.653 70.8031 379.444 70.1998C380.224 69.6074 380.851 68.8486 381.311 67.9447C381.768 67.0429 382 65.9645 382 64.7358C382 63.4675 381.757 62.4558 381.279 61.7293C380.787 60.9815 380.157 60.3759 379.407 59.9287C378.616 59.4624 377.756 59.0959 376.854 58.8422C375.873 58.5673 374.96 58.2916 374.11 58.0167C373.205 57.7235 372.439 57.3613 371.835 56.9376C371.101 56.4288 370.713 55.6612 370.713 54.7206C370.713 54.1289 370.873 53.6092 371.186 53.1722C371.478 52.7712 371.859 52.4442 372.324 52.2008C372.746 51.9802 373.2 51.816 373.675 51.7119C374.92 51.4362 376.082 51.5344 377.391 51.989C377.984 52.1964 378.499 52.486 378.932 52.8526L381.659 49.9172C380.836 49.2999 379.928 48.8409 378.956 48.5506C376.686 47.871 374.148 47.7948 371.833 48.4663C370.792 48.7713 369.86 49.2324 369.066 49.8358C368.284 50.4311 367.648 51.1818 367.175 52.0681C366.71 52.942 366.476 53.9838 366.476 55.1627C366.476 56.3613 366.722 57.3217 367.205 58.0211C367.71 58.752 368.354 59.3495 369.118 59.7967C369.921 60.2674 370.803 60.6457 371.735 60.9228C372.739 61.2212 373.669 61.5196 374.534 61.8179C375.455 62.1361 376.232 62.5305 376.849 62.9902C377.581 63.5342 377.968 64.315 377.968 65.2468C377.968 65.8135 377.818 66.3193 377.522 66.7489C377.247 67.1485 376.881 67.4806 376.435 67.7357C376.021 67.9733 375.548 68.1536 375.033 68.2709C373.521 68.6111 372.023 68.4322 370.637 67.7797C369.95 67.4564 369.341 67.0283 368.823 66.5026L365.971 69.5869C366.929 70.3647 367.955 70.9483 369.031 71.3258C371.338 72.1345 374.241 72.2239 376.664 71.5494Z" fill="black"/>
</svg>
